<?xml version="1.0" encoding="UTF-8"?>
<svg width="48px" height="48px" viewBox="0 0 23 25" version="1.1" xmlns="http://www.w3.org/2000/svg" xmlns:xlink="http://www.w3.org/1999/xlink">
    <!-- Generator: Sketch 42 (36781) - http://www.bohemiancoding.com/sketch -->
    <title>umbrella</title>
    <desc>Created with Sketch.</desc>
    <defs></defs>
    <g id="Page-1" stroke="none" stroke-width="1" fill="none" fill-rule="evenodd">
        <g id="Flat---Filled" transform="translate(-201.000000, -350.000000)" fill="#000000">
            <g id="umbrella" transform="translate(201.000000, 349.500000)">
                <path d="M12,1.5302 L12,1.0052 C12,0.7282 11.776,0.5052 11.5,0.5052 C11.224,0.5052 11,0.7282 11,1.0052 L11,1.5302 C4.892,1.7952 0,6.8332 0,13.0052 C0,13.5782 0.041,14.1302 0.126,14.6892 C0.161,14.9252 0.356,15.1022 0.594,15.1142 C0.826,15.1342 1.045,14.9702 1.104,14.7412 C1.446,13.4252 2.637,12.5052 4,12.5052 C4.821,12.5052 5.581,12.8262 6.139,13.4102 C6.326,13.6072 6.674,13.6072 6.861,13.4102 C7.935,12.2862 9.861,12.2552 11,13.2942 L11,22.0052 C11,23.3842 9.879,24.5052 8.5,24.5052 C7.121,24.5052 6,23.3842 6,22.0052 C6,21.7282 5.776,21.5052 5.5,21.5052 C5.224,21.5052 5,21.7282 5,22.0052 C5,23.9342 6.57,25.5052 8.5,25.5052 C10.43,25.5052 12,23.9342 12,22.0052 L12,13.2942 C13.139,12.2552 15.065,12.2862 16.139,13.4102 C16.326,13.6072 16.674,13.6072 16.861,13.4102 C17.419,12.8262 18.179,12.5052 19,12.5052 C20.363,12.5052 21.554,13.4252 21.896,14.7412 C21.953,14.9622 22.153,15.1152 22.38,15.1152 C22.389,15.1152 22.397,15.1152 22.406,15.1142 C22.644,15.1022 22.839,14.9252 22.874,14.6892 C22.959,14.1302 23,13.5782 23,13.0052 C23,6.8332 18.108,1.7952 12,1.5302" id="Fill-198"></path>
            </g>
        </g>
    </g>
</svg>